<?xml version="1.0" standalone="no"?>
<!DOCTYPE svg PUBLIC "-//W3C//DTD SVG 1.1//EN" "http://www.w3.org/Graphics/SVG/1.1/DTD/svg11.dtd" >
<svg xmlns="http://www.w3.org/2000/svg">
<metadata>Generated by IcoMoon</metadata>
<defs>
<font id="erp-icon" horiz-adv-x="1024">
<font-face units-per-em="1024" ascent="960" descent="-64" />
<missing-glyph horiz-adv-x="1024" />
<glyph unicode="&#x20;" horiz-adv-x="512" d="" />
<glyph unicode="&#xe900;" glyph-name="back" d="M363.841 487.021c-26.902-24.38-26.539-64.507 0.889-88.507l309.222-270.569c8.867-7.759 22.345-6.86 30.103 2.007s6.86 22.345-2.007 30.103l-309.222 270.569c-8.231 7.202-8.324 17.541-0.334 24.782l309.833 280.786c8.73 7.912 9.394 21.403 1.482 30.133s-21.403 9.394-30.133 1.482l-309.833-280.786z" />
<glyph unicode="&#xe901;" glyph-name="close" d="M176.662 142.827c-8.189-8.471-7.96-21.977 0.511-30.166s21.977-7.96 30.166 0.511l618.667 640c8.189 8.471 7.96 21.977-0.511 30.166s-21.977 7.96-30.166-0.511l-618.667-640zM795.328 113.173c8.189-8.471 21.694-8.7 30.166-0.511s8.7 21.694 0.511 30.166l-618.667 640c-8.189 8.471-21.694 8.7-30.166 0.511s-8.7-21.694-0.511-30.166l618.667-640z" />
<glyph unicode="&#xe902;" glyph-name="gift" d="M85.931 9.984c0-24.576 7.125-31.317 29.44-31.317h353.365v469.589h-382.805v-438.272zM555.264-21.333h353.365c22.357 0 29.44 6.699 29.44 31.317v438.272h-382.848v-469.589zM938.667 704h-213.333c51.499 11.733 105.899 49.707 112.597 94.293 7.851 50.859-52.565 127.957-125.653 118.187-87.424-12.117-151.509-89.259-196.736-149.077-44.885 58.667-103.381 127.189-187.179 147.115-81.152 19.2-136.747-64.939-135.253-116.992 1.451-44.245 52.608-81.835 105.557-93.525h-213.333c-26.368 0-42.667-14.848-42.667-42.667v-170.581l426.667-0.085v213.333h85.333v-213.333l426.667 0.085v170.581c0 27.819-16.341 42.667-42.667 42.667zM251.648 781.824c-14.763 16.427-4.779 38.741 4.48 55.595 17.024 29.696 40.747 47.744 81.152 30.933 56.32-23.509 97.792-73.216 131.584-117.803-71.552-7.893-178.304-10.965-217.216 31.275zM562.944 751.317c34.816 44.629 75.221 89.941 131.157 117.803 58.581 28.971 113.024-49.323 85.205-86.912-21.419-28.544-89.259-31.232-125.909-32.853-30.080-1.536-60.501-0.811-90.453 1.963z" />
<glyph unicode="&#xe903;" glyph-name="good" d="M896 917.333h-768c-36.267 0-64-27.733-64-64v-810.667c0-36.267 27.733-64 64-64h768c36.267 0 64 27.733 64 64v810.667c0 36.267-27.733 64-64 64zM768 576c-8.533-106.667-140.8-192-256-192s-247.467 85.333-256 192c-25.6 4.267-42.667 25.6-42.667 53.333 0 29.867 23.467 53.333 53.333 53.333s53.333-23.467 53.333-53.333c0-17.067-8.533-32-21.333-42.667 0-87.467 119.467-160 213.333-160s213.333 72.533 213.333 160c-12.8 10.667-21.333 25.6-21.333 42.667 0 29.867 23.467 53.333 53.333 53.333s53.333-23.467 53.333-53.333c0-25.6-19.2-46.933-42.667-53.333z" />
<glyph unicode="&#xe904;" glyph-name="member_card" horiz-adv-x="1417" d="M1053.926 818.789h-798.626c-62.983-0.064-114.023-51.105-114.087-114.082v-513.408c0.064-62.983 51.105-114.023 114.083-114.087h798.632c62.983 0.064 114.024 51.105 114.087 114.082v513.408c-0.064 62.983-51.105 114.023-114.082 114.087zM255.298 761.75h798.627c31.487-0.047 56.998-25.562 57.039-57.045v-114.093h-912.704v114.087c0.040 31.488 25.553 57.003 57.035 57.049zM1053.926 134.25h-798.626c-31.487 0.047-56.998 25.562-57.038 57.045v342.267h912.704v-342.264c-0.041-31.488-25.553-57.002-57.035-57.050zM545.535 461.349c-1.495 0.584-3.226 0.921-5.035 0.921-6.068 0-11.249-3.802-13.292-9.151l-72.248-192.684-72.226 192.577c-2.117 5.389-7.274 9.133-13.307 9.133-7.876 0-14.259-6.384-14.259-14.259 0-1.761 0.319-3.447 0.903-5.003l85.531-228.078c2.082-5.454 7.271-9.259 13.349-9.259s11.266 3.803 13.316 9.16l85.597 228.274c0.586 1.497 0.924 3.232 0.924 5.045 0 6.069-3.802 11.252-9.155 13.293zM654.613 462.262c-0.004 0-0.007 0-0.009 0-7.871 0-14.253-6.381-14.253-14.253 0-0.005 0-0.007 0-0.010v-228.175c0.003-7.876 6.387-14.258 14.262-14.258s14.259 6.384 14.262 14.258v228.176c0 0.004 0 0.007 0 0.009 0 7.871-6.381 14.253-14.253 14.253-0.005 0-0.007 0-0.010 0zM882.789 462.262h-114.087c-0.004 0-0.007 0-0.009 0-7.871 0-14.252-6.381-14.252-14.253 0-0.005 0-0.007 0-0.010v-228.175c0-7.877 6.385-14.262 14.262-14.262s14.262 6.385 14.262 14.262v99.825h99.825c39.382 0 71.306 31.925 71.306 71.306s-31.925 71.306-71.306 71.306zM882.789 348.175h-99.825v85.564h99.825c0.197 0.005 0.428 0.007 0.663 0.007 23.632 0 42.787-19.157 42.787-42.787 0-23.632-19.157-42.787-42.787-42.787-0.232 0-0.466 0.003-0.697 0.007z" />
<glyph unicode="&#xe905;" glyph-name="message_fill" d="M688 416c-26.51 0-48 21.49-48 48s21.49 48 48 48v0c26.51 0 48-21.49 48-48s-21.49-48-48-48v0zM512 416c-26.51 0-48 21.49-48 48s21.49 48 48 48v0c26.51 0 48-21.49 48-48s-21.49-48-48-48v0zM336 416c-0.374-0.010-0.814-0.016-1.255-0.016-26.51 0-48 21.49-48 48s21.49 48 48 48c0.43 0 0.859-0.006 1.286-0.017l-0.063 0.001c25.978-0.683 46.777-21.905 46.777-47.984 0-26.068-20.781-47.283-46.68-47.982l-0.065-0.001zM805.312 768h-586.624c-32.352 0-58.688-27.488-58.688-61.248v-471.392c0-33.792 26.4-61.248 58.816-61.248h189.344c5.888 0 15.648-5.728 18.304-10.752l38.080-71.968 2.912-4.544c11.136-14.496 27.36-22.816 44.48-22.848h0.032c17.152 0 33.376 8.32 44.576 22.816l40.992 76.544c2.432 4.576 11.936 10.752 18.336 10.752h189.504c32.32 0 58.624 27.456 58.624 61.248v471.392c0 33.76-26.336 61.248-58.688 61.248z" />
<glyph unicode="&#xe906;" glyph-name="notice" d="M0 571.753v-138.921c0-58.767 33.495-106.408 74.815-106.408h66.162v-282.584c0-38.928 31.557-70.483 70.486-70.483s70.488 31.556 70.488 70.483v75.462h-31.393c-13.992 0-25.335 11.341-25.335 25.334 0 13.99 11.342 25.334 25.335 25.334h31.393v60.581h-31.393c-13.992 0-25.335 11.341-25.335 25.334 0 13.99 11.342 25.334 25.335 25.334h31.393v396.943h-207.136c-41.32 0-74.815-47.64-74.815-106.407zM950.756 960h71.452v-915.416h-71.452v915.416zM317.751 678.16v-352.402c0 0 88.471 0 130.725 0 114.030 0 468.892-281.908 468.892-281.908l0.566 916.15c0 0-352.641-281.839-470.993-281.839-52.86-0.001-129.19-0.001-129.19-0.001z" />
<glyph unicode="&#xe907;" glyph-name="people" d="M800 124.672l-574.496-0.032c-0.591 0.057-1.112 0.315-1.504 0.704v0 118.656c0 5.856 5.92 14.944 12.096 17.44 1.056 0.448 69.408 30.272 149.952 50.464 41.248 10.336 85.632 18.208 125.952 18.208 36.64 0 76.736-6.496 114.816-15.456 62.999-15.493 116.938-33.833 168.744-56.18l-6.888 2.644c5.312-2.176 11.328-11.296 11.328-17.12v-119.36zM400.992 633.12c0.146 56.85 46.265 102.88 103.136 102.88 0.011 0 0.023 0 0.034 0h-0.002c0.010 0 0.021 0 0.032 0 56.877 0 103.004-46.026 103.168-102.864v-123.12c-0.164-56.854-46.291-102.88-103.168-102.88-0.011 0-0.023 0-0.034 0h0.002c-0.010 0-0.021 0-0.032 0-56.87 0-102.99 46.030-103.136 102.866v123.118zM813.728 320c-3.904 1.728-58.56 25.6-129.312 45.76-17.732 5.496-42.139 11.583-66.924 16.633l-5.684 0.967c36.096 30.592 59.552 75.68 59.552 126.656v123.104c-0.164 92.2-74.945 166.88-167.168 166.88 0 0 0 0 0 0v0c-92.16 0-167.2-74.72-167.2-166.88v-123.104c0-52.352 24.768-98.624 62.72-129.28-25.472-5.376-50.112-11.872-72.8-18.656-47.089-14.068-85.458-28.234-122.754-44.408l7.106 2.744c-29.248-11.744-51.264-44.608-51.264-76.416v-131.68l1.696-4.992c9.504-27.936 35.136-46.72 63.808-46.72h572.992c33.165 0.007 60.574 24.648 64.922 56.621l0.038 0.339 0.544 126.4c0 31.616-21.952 64.416-50.272 76.032z" />
<glyph unicode="&#xe908;" glyph-name="people_fill" d="M813.728 320c-3.904 1.728-58.56 25.6-129.312 45.792-17.735 5.488-42.143 11.565-66.929 16.604l-5.679 0.964c36.096 30.592 59.552 75.68 59.552 126.656v123.104c-0.164 92.2-74.945 166.88-167.168 166.88 0 0 0 0 0 0v0c-92.16 0-167.2-74.72-167.2-166.88v-123.104c0-52.352 24.768-98.624 62.72-129.248-25.472-5.408-50.112-11.904-72.8-18.688-47.089-14.068-85.458-28.234-122.754-44.408l7.106 2.744c-29.248-11.744-51.264-44.608-51.264-76.416v-131.68l1.696-4.992c9.504-27.936 35.136-46.688 63.808-46.688h572.992c33.165 0.007 60.574 24.648 64.922 56.621l0.038 0.339 0.544 126.4c0 31.584-21.952 64.384-50.272 76z" />
<glyph unicode="&#xe909;" glyph-name="price" d="M618.833 681.501l-71.184-131.087c-18.935-35.555-30.53-59.205-34.783-70.954h-1.312c-12.405 28.521-47.689 95.842-105.927 202.041h-66.82l124.363-213.827h-102.025v-47.189h119.647v-65.077h-119.647v-47.921h119.647v-94.682h59.279v94.682h115.476v47.921h-115.476v65.077h115.476v47.189h-99.010l125.598 213.827h-63.303zM510.433 895.211c-247.062 0-448.021-200.998-448.021-448.059 0-247.023 200.958-448.059 448.020-448.059 247.065 0 448.099 201.036 448.099 448.059 0 247.061-201.034 448.059-448.098 448.059zM510.433 47.17c-220.55 0-400.020 179.471-400.020 399.983 0 220.589 179.469 399.906 400.020 399.906 220.552 0 400.022-179.317 400.022-399.906 0-220.512-179.469-399.983-400.022-399.983z" />
<glyph unicode="&#xe90a;" glyph-name="price_full" d="M513.176 895.641c-246.776 0-446.749-200.056-446.749-446.751 0-246.778 199.972-446.669 446.749-446.669 246.613 0 446.669 199.891 446.669 446.669 0 246.695-200.056 446.751-446.669 446.751zM718.414 731.287l-157.034-276.802h126.558c4.194 0 7.526-3.292 7.526-7.568v-45.819c0-4.196-3.334-7.567-7.526-7.567h-139.102v-45.489h139.102c4.194 0 7.526-3.374 7.526-7.568v-45.9c0-4.277-3.334-7.567-7.526-7.567h-139.102v-128.571c0-4.198-3.33-7.568-7.567-7.568h-56.389c-4.198 0-7.526 3.372-7.526 7.568v128.57h-137.496c-4.238 0-7.57 3.29-7.57 7.567v45.9c0 4.196 3.334 7.568 7.57 7.568h137.494v45.489h-137.494c-4.238 0-7.57 3.372-7.57 7.567v45.819c0 4.277 3.334 7.568 7.57 7.568h125.319l-155.758 276.885c-1.355 2.302-1.355 5.182 0.084 7.567 1.315 2.304 3.865 3.703 6.54 3.703h65.435c2.758 0 5.265-1.481 6.584-3.867l125.611-223.911 126.678 223.911c1.315 2.468 3.865 3.867 6.58 3.867h64.864c2.67 0 5.181-1.399 6.62-3.703 1.314-2.385 1.314-5.265-0.001-7.649z" />
<glyph unicode="&#xe90b;" glyph-name="receipt" d="M946.405 378.964l-356.407-312.272c-21.728-17.534-49.298-28.077-79.348-28.077-29.805 0-57.153 10.4-78.799 27.663l-356.294 311.874c-7.775 8.936-12.644 20.48-12.644 33.279 0 23.309 15.746 42.753 37.086 48.747 0 0 5.127 1.987 12.6 1.987s104.987 0 104.987 0v325.39c0 46.8 35.208 81.406 81.868 81.406h422.39c46.66 0 81.868-34.606 81.868-81.406v-325.389h102.986c0.34 0 0.658 0.098 1.001 0.098 0.341 0 0.66-0.098 1.002-0.098h1.183l0.057-0.127c26.925-1.209 48.446-23.307 48.446-50.608-0.001-12.419-4.612-23.645-11.981-32.467zM624.617 518.912c18.658 0 29.647 14.482 29.647 33.196s-10.988 31.93-29.647 31.93l-71.857 0.019 74.243 74.613c13.292 13.324 13.292 34.933 0 48.264-13.285 13.332-34.836 13.332-48.121 0l-68.806-69.013-68.534 68.743c-13.293 13.332-34.836 13.332-48.122 0-13.293-13.332-13.293-34.941 0-48.263l74.151-74.386-70.89 0.024c-18.659 0-29.647-13.216-29.647-31.93s10.988-33.196 29.647-33.196h73.265v-40.703h-73.265c-18.659 0-29.647-12.12-29.647-30.849 0-18.714 10.988-34.276 29.647-34.276h73.265v-48.842c0-23.389 17.371-40.703 40.704-40.703 23.325 0 40.702 17.314 40.702 40.703v48.842h75.36c18.658 0 27.553 12.491 27.553 31.206 0 24.348-12.987 33.919-31.646 33.919h-71.267v40.703h73.265z" />
<glyph unicode="&#xe90c;" glyph-name="recharge" d="M870.441 785.516h-711.767c-55.864 0-101.207-45.046-101.663-100.792h915.113c-0.481 55.747-45.819 100.792-101.683 100.792v0zM56.991 633.876v-428.073c0-56.141 45.527-101.647 101.683-101.647h711.767c56.161 0 101.683 45.507 101.683 101.647v428.073h-915.133zM655.053 312.12c0-9.999-8.115-18.109-18.079-18.109h-103.516v-66.053c0-9.964-8.084-18.053-18.007-18.053h-1.751c-9.938 0-18.033 8.090-18.033 18.053v66.053h-103.506c-9.964 0-18.074 8.131-18.074 18.109v1.976c0 9.989 8.11 18.099 18.074 18.099v-0.026h103.511v35.174h-79.201c-9.958 0-18.074 8.131-18.074 18.115v1.603c0 10.004 8.11 18.115 18.074 18.115h78.162l-86.687 84.444c-3.517 3.451-5.448 8.049-5.448 12.913 0 4.884 1.956 9.482 5.468 12.913 3.451 3.415 8.074 5.279 12.979 5.279s9.544-1.889 13.020-5.304l80.799-79.718 80.532 79.493c3.523 3.415 8.115 5.258 12.984 5.258 4.884 0 9.477-1.848 12.928-5.258 3.497-3.389 5.437-7.967 5.448-12.836 0-4.884-1.935-9.441-5.448-12.892l-85.443-84.316h76.892c9.989 0 18.12-8.136 18.12-18.115v-1.582c0-10.004-8.131-18.115-18.12-18.115h-79.181v-35.174h103.516c9.964 0 18.074-8.105 18.074-18.089v-1.961h-0.015v0.005z" />
<glyph unicode="&#xe90d;" glyph-name="scan" horiz-adv-x="1174" d="M135.777 82.361v253.568h-56.348v-281.743c0-62.241 50.456-112.696 112.696-112.696h281.743v56.348h-253.568c-46.682 0-84.523 37.841-84.523 84.523zM981.005 955.763h-281.743v-56.348h253.568c46.68 0 84.523-37.843 84.523-84.523v-253.568h56.348v281.743c0 62.241-50.456 112.696-112.696 112.696zM79.429 843.066v-281.743h56.348v253.568c0 46.68 37.843 84.523 84.523 84.523h253.568v56.348h-281.743c-62.241 0-112.696-50.456-112.696-112.696zM1037.353 82.361c0-46.68-37.843-84.523-84.523-84.523h-253.568v-56.348h281.743c62.241 0 112.696 50.456 112.696 112.696v281.743h-56.348v-253.568zM23.080 476.801h1126.971v-56.348h-1126.971v56.348z" />
<glyph unicode="&#xe90e;" glyph-name="shopping_cart" d="M821.6 704l-78.4-256h-400.8l-70.4 256h549.6zM216 896h-152v-64h104.8l18.4-64 100-361.6c1.6-4.8 4-8.8 7.2-12l-52-83.2c-6.4-5.6-10.4-14.4-10.4-23.2 0-17.6 14.4-32 32-32h568v64h-508.8l40 64h404.8c13.6 0 24.8 8.8 29.6 22.4l97.6 318.4c6.4 20.8-8 43.2-29.6 43.2h-612.8l-36.8 128zM256 128c0-35.346 28.654-64 64-64s64 28.654 64 64v0c0 35.346-28.654 64-64 64s-64-28.654-64-64v0zM704 128c0-35.346 28.654-64 64-64s64 28.654 64 64v0c0 35.346-28.654 64-64 64s-64-28.654-64-64v0z" />
<glyph unicode="&#xe90f;" glyph-name="store_value" d="M827.39 767.659h-635.2c-71.761 0-130.145-55.657-130.145-124.066v-65.463h895.488v65.463c0.001 68.409-58.382 124.066-130.143 124.066zM62.045 189.657c0-68.411 58.383-124.067 130.145-124.067h635.2c71.761 0 130.144 55.657 130.144 124.067v261.584h-895.489v-261.584zM602.391 256.813h186.242c18.651 0 33.769-15.118 33.769-33.769s-15.118-33.769-33.769-33.769h-186.242c-18.651 0-33.769 15.118-33.769 33.769s15.118 33.769 33.769 33.769z" />
<glyph unicode="&#xe910;" glyph-name="voucher" d="M1010.964 432.492l-509.396 509.46c-8.896 11.168-21.503 18.048-35.839 18.048h-421.398c-24.511 0-44.319-19.808-44.319-44.351v-421.398c0-14.368 6.912-27.007 17.504-35.103 0.224-0.224 510.036-510.164 510.036-510.164 17.28-17.312 45.375-17.312 62.687 0l420.758 420.758c17.28 17.344 17.28 45.439-0.032 62.719zM177.384 738.213c-36.735 0-66.526 29.791-66.526 66.526 0.032 36.767 29.791 66.526 66.526 66.526s66.558-29.791 66.558-66.526c0-36.703-29.791-66.526-66.558-66.526z" />
<glyph unicode="&#xe911;" glyph-name="wallet" d="M941.787 730.209c0 72.494-62.138 134.632-134.632 134.632h-574.775c-72.494 0-134.632-62.138-134.632-134.632v-572.186c0-72.494 62.138-134.632 134.632-134.632h572.186c72.494 0 134.632 62.138 134.632 134.632v142.399h-302.922c0 2.589-116.508-7.767-116.508 137.221 0 155.345 126.865 144.988 126.865 144.988h295.155v147.577zM574.138 440.233c0-100.974 90.618-90.618 90.618-90.618h266.675v194.181h-258.908c0-2.589-98.385 5.178-98.385-103.563zM675.112 484.247c18.124 0 33.658-15.534 33.658-33.658 0-12.945-7.767-23.302-18.124-31.069-10.356-5.178-23.302-5.178-33.658 0s-18.124 18.124-18.124 31.069c2.589 18.124 18.124 33.658 36.247 33.658z" />
<glyph unicode="&#xe912;" glyph-name="order" d="M224 128.064v639.84l-0.256 0.096 576.256-0.096 0.256-639.904-576.256 0.064zM800.256 832h-576.512c-35.236-0.145-63.744-28.743-63.744-63.999 0-0.034 0-0.068 0-0.102v0.005-639.84c0-0.019 0-0.042 0-0.065 0-35.256 28.508-63.854 63.73-63.999h576.526c35.236 0.145 63.744 28.743 63.744 63.999 0 0.023 0 0.045 0 0.068v-0.004 639.84c0 0.029 0 0.063 0 0.097 0 35.256-28.508 63.854-63.73 63.999h-0.014zM640 544h-256c-17.673 0-32-14.327-32-32s14.327-32 32-32v0h256c17.673 0 32 14.327 32 32s-14.327 32-32 32v0zM640 384h-256c-17.673 0-32-14.327-32-32s14.327-32 32-32v0h256c17.673 0 32 14.327 32 32s-14.327 32-32 32v0z" />
<glyph unicode="&#xe913;" glyph-name="order_fill" d="M640 480.032h-256c-17.673 0-32 14.327-32 32s14.327 32 32 32v0h256c17.673 0 32-14.327 32-32s-14.327-32-32-32v0zM640 320.032h-256c-17.673 0-32 14.327-32 32s14.327 32 32 32v0h256c17.673 0 32-14.327 32-32s-14.327-32-32-32v0zM800.256 832h-576.512c-35.236-0.145-63.744-28.743-63.744-63.999 0-0.023 0-0.045 0-0.068v0.004-639.84c0-0.029 0-0.063 0-0.097 0-35.256 28.508-63.854 63.73-63.999h576.526c35.236 0.145 63.744 28.743 63.744 63.999 0 0.034 0 0.068 0 0.102v-0.005 639.84c0 0.019 0 0.042 0 0.065 0 35.256-28.508 63.854-63.73 63.999h-0.014z" />
</font>
</defs>
</svg>
