<?xml version="1.0" standalone="no"?><!DOCTYPE svg PUBLIC "-//W3C//DTD SVG 1.1//EN" "http://www.w3.org/Graphics/SVG/1.1/DTD/svg11.dtd"><svg t="1523519243127" class="icon" style="" viewBox="0 0 1024 1024" version="1.1" xmlns="http://www.w3.org/2000/svg" p-id="9077" xmlns:xlink="http://www.w3.org/1999/xlink" width="200" height="200"><defs><style type="text/css"></style></defs><path d="M909.312 1021.533091 114.688 1021.533091 114.688 470.016l130.909091 0 0-201.146182c0-146.897455 119.505455-266.402909 266.426182-266.402909 146.897455 0 266.379636 119.505455 266.379636 266.402909l0 201.146182 130.909091 0L909.312 1021.533091zM161.233455 974.987636l701.556364 0L862.789818 516.561455 161.233455 516.561455 161.233455 974.987636zM292.142545 470.016l439.714909 0 0-201.146182c0-121.227636-98.606545-219.857455-219.834182-219.857455-121.227636 0-219.880727 98.629818-219.880727 219.857455L292.142545 470.016z" p-id="9078"></path></svg>