<?xml version="1.0" standalone="no"?><!DOCTYPE svg PUBLIC "-//W3C//DTD SVG 1.1//EN" "http://www.w3.org/Graphics/SVG/1.1/DTD/svg11.dtd"><svg t="1523258028379" class="icon" style="" viewBox="0 0 1024 1024" version="1.1" xmlns="http://www.w3.org/2000/svg" p-id="1929" xmlns:xlink="http://www.w3.org/1999/xlink" width="200" height="200"><defs><style type="text/css"></style></defs><path d="M0 388.247488l0 138.92098c0 58.767452 33.495241 106.408495 74.81501 106.408495l66.161569 0 0 282.58396c0 38.927591 31.557018 70.483284 70.486243 70.483284s70.488289-31.555693 70.488289-70.483284l0-75.461669-31.393282 0c-13.992253 0-25.335055-11.341303-25.335055-25.333992 0-13.989619 11.341779-25.333992 25.335055-25.333992l31.393282 0 0-60.58075-31.393282 0c-13.992253 0-25.335055-11.341303-25.335055-25.333992 0-13.989619 11.341779-25.333992 25.335055-25.333992l31.393282 0 0-45.205575L281.951111 484.915132l0-203.075115L74.81501 281.840016C33.495241 281.840016 0 329.480037 0 388.247488zM950.755831 0l71.452284 0 0 915.415956-71.452284 0 0-915.415956ZM317.750934 281.840016l0 352.402095c0 0 88.470581 0 130.724667 0 114.029749 0 468.89244 281.907555 468.89244 281.907555l0.565912-916.149667c0 0-352.641 281.838993-470.993376 281.838993C394.080501 281.840016 317.750934 281.840016 317.750934 281.840016z" p-id="1930"></path></svg>