<?xml version="1.0" standalone="no"?><!DOCTYPE svg PUBLIC "-//W3C//DTD SVG 1.1//EN" "http://www.w3.org/Graphics/SVG/1.1/DTD/svg11.dtd"><svg t="1523519150478" class="icon" style="" viewBox="0 0 1024 1024" version="1.1" xmlns="http://www.w3.org/2000/svg" p-id="3129" xmlns:xlink="http://www.w3.org/1999/xlink" width="200" height="200"><defs><style type="text/css"></style></defs><path d="M791.850932 0 251.229814 0C213.068323 0 181.267081 31.801242 181.267081 69.962733l0 884.074534c0 38.161491 31.801242 69.962733 69.962733 69.962733l540.621118 0c38.161491 0 69.962733-31.801242 69.962733-69.962733L861.813665 69.962733C861.813665 31.801242 830.012422 0 791.850932 0L791.850932 0zM257.590062 63.602484l521.540373 0c6.360248 0 19.080745 6.360248 19.080745 19.080745l0 667.826087L244.869565 750.509317 244.869565 76.322981C244.869565 69.962733 238.509317 63.602484 251.229814 63.602484L257.590062 63.602484zM779.130435 954.037267 257.590062 954.037267c-6.360248 0-19.080745-6.360248-19.080745-19.080745l0-127.204969 553.341615 0 0 127.204969c0 6.360248 6.360248 19.080745-6.360248 19.080745L779.130435 954.037267z" p-id="3130"></path><path d="M518.360248 884.074534M467.478261 884.074534" p-id="3131"></path></svg>