<?xml version="1.0" standalone="no"?><!DOCTYPE svg PUBLIC "-//W3C//DTD SVG 1.1//EN" "http://www.w3.org/Graphics/SVG/1.1/DTD/svg11.dtd"><svg t="1523259502749" class="icon" style="" viewBox="0 0 1024 1024" version="1.1" xmlns="http://www.w3.org/2000/svg" p-id="3275" xmlns:xlink="http://www.w3.org/1999/xlink" width="200" height="200"><defs><style type="text/css"></style></defs><path d="M513.17629 64.358797c-246.77643 0-446.74888 200.056362-446.74888 446.750927 0 246.778476 199.972451 446.669062 446.74888 446.669062 246.612701 0 446.669062-199.890586 446.669062-446.669062C959.845353 264.415159 759.788991 64.358797 513.17629 64.358797zM718.413652 228.713029 561.380152 505.515309l126.558417 0c4.193509 0 7.526417 3.291976 7.526417 7.568373l0 45.818535c0 4.195555-3.333932 7.567349-7.526417 7.567349L548.836465 566.469566l0 45.48903 139.102105 0c4.193509 0 7.526417 3.373841 7.526417 7.568373l0 45.9004c0 4.27742-3.333932 7.567349-7.526417 7.567349L548.836465 672.994718l0 128.571261c0 4.197602-3.329838 7.568373-7.567349 7.568373l-56.389288 0c-4.197602 0-7.526417-3.371794-7.526417-7.568373L477.35341 672.995741 339.857896 672.995741c-4.237511 0-7.570419-3.289929-7.570419-7.567349l0-45.9004c0-4.195555 3.333932-7.568373 7.570419-7.568373l137.494491 0 0-45.48903L339.857896 566.470589c-4.237511 0-7.570419-3.371794-7.570419-7.567349l0-45.818535c0-4.27742 3.333932-7.568373 7.570419-7.568373l125.319194 0L309.41863 228.631164c-1.354857-2.302439-1.354857-5.182023 0.083911-7.567349 1.314948-2.304486 3.865028-3.703345 6.53995-3.703345l65.435315 0c2.75781 0 5.26491 1.480724 6.583952 3.867074l125.610836 223.910653 126.678144-223.910653c1.314948-2.468215 3.865028-3.867074 6.579859-3.867074l64.86431 0c2.669806 0 5.180999 1.39886 6.619768 3.703345C719.7286 223.449141 719.7286 226.328725 718.413652 228.713029z" p-id="3276"></path></svg>