<?xml version="1.0" standalone="no"?><!DOCTYPE svg PUBLIC "-//W3C//DTD SVG 1.1//EN" "http://www.w3.org/Graphics/SVG/1.1/DTD/svg11.dtd"><svg t="1523259498413" class="icon" style="" viewBox="0 0 1024 1024" version="1.1" xmlns="http://www.w3.org/2000/svg" p-id="3157" xmlns:xlink="http://www.w3.org/1999/xlink" width="200" height="200"><defs><style type="text/css"></style></defs><path d="M618.832655 278.498922l-71.184249 131.086547c-18.935258 35.554774-30.53034 59.205427-34.783201 70.954005l-1.311879 0c-12.404518-28.520567-47.689139-95.841835-105.926518-202.040553l-66.819848 0L463.170386 492.325915l-102.024651 0 0 47.188742 119.647007 0 0 65.077158L361.145735 604.591815l0 47.921429 119.647007 0 0 94.682429 59.279105 0 0-94.682429 115.476011 0 0-47.921429L540.071847 604.591815l0-65.077158 115.476011 0L655.547859 492.325915l-99.009991 0 125.597533-213.826993L618.832655 278.498922z" p-id="3158"></path><path d="M510.432807 64.788585C263.370875 64.788585 62.411957 265.786389 62.411957 512.847298c0 247.023046 200.957895 448.058712 448.019827 448.058712 247.065002 0 448.098621-201.035666 448.098621-448.058712C958.530404 265.786389 757.496785 64.788585 510.432807 64.788585zM510.432807 912.830061c-220.550115 0-400.019603-179.470511-400.019603-399.982764 0-220.589001 179.469488-399.906016 400.019603-399.906016 220.552162 0 400.021649 179.317015 400.021649 399.906016C910.454456 733.35955 730.984968 912.830061 510.432807 912.830061z" p-id="3159"></path></svg>