<?xml version="1.0" standalone="no"?><!DOCTYPE svg PUBLIC "-//W3C//DTD SVG 1.1//EN" "http://www.w3.org/Graphics/SVG/1.1/DTD/svg11.dtd"><svg t="1523258035922" class="icon" style="" viewBox="0 0 1174 1024" version="1.1" xmlns="http://www.w3.org/2000/svg" p-id="2168" xmlns:xlink="http://www.w3.org/1999/xlink" width="229.296875" height="200"><defs><style type="text/css"></style></defs><path d="M135.77675 877.638621 135.77675 624.070797 79.428502 624.070797l0 281.742654c0 62.240839 50.455658 112.696497 112.696497 112.696497l281.742654 0 0-56.348248L220.299829 962.161699C173.618141 962.161699 135.77675 924.320309 135.77675 877.638621zM981.004712 4.237241 699.262058 4.237241l0 56.348248 253.567823 0c46.680276 0 84.523079 37.842803 84.523079 84.523079l0 253.567823 56.348248 0L1093.701208 116.933738C1093.701208 54.692899 1043.24555 4.237241 981.004712 4.237241zM79.428502 116.933738l0 281.742654 56.348248 0L135.77675 145.108568c0-46.680276 37.842803-84.523079 84.523079-84.523079l253.567823 0L473.867652 4.237241 192.124999 4.237241C129.88416 4.237241 79.428502 54.692899 79.428502 116.933738zM1037.35296 877.638621c0 46.680276-37.842803 84.523079-84.523079 84.523079L699.262058 962.161699l0 56.348248 281.742654 0c62.240839 0 112.696497-50.455658 112.696497-112.696497L1093.701208 624.070797l-56.348248 0L1037.35296 877.638621zM23.080254 483.19947l1126.970615 0 0 56.348248-1126.970615 0 0-56.348248Z" p-id="2169"></path></svg>