<?xml version="1.0" standalone="no"?><!DOCTYPE svg PUBLIC "-//W3C//DTD SVG 1.1//EN" "http://www.w3.org/Graphics/SVG/1.1/DTD/svg11.dtd"><svg t="1523258426684" class="icon" style="" viewBox="0 0 1024 1024" version="1.1" xmlns="http://www.w3.org/2000/svg" p-id="2613" xmlns:xlink="http://www.w3.org/1999/xlink" width="200" height="200"><defs><style type="text/css"></style></defs><path d="M1010.964306 527.507637l-509.396061-509.46006c-8.895792-11.167738-21.503496-18.047577-35.83916-18.047577l-421.398123 0c-24.511426 0-44.318961 19.807536-44.318961 44.350961l0 421.398123c0 14.367663 6.911838 27.007367 17.50359 35.103177 0.223995 0.223995 510.036046 510.164043 510.036046 510.164043 17.279595 17.311594 45.374937 17.311594 62.686531 0l420.758138-420.758138c17.279595-17.343594 17.279595-45.438935-0.031999-62.71853zM177.383843 221.786802c-36.735139 0-66.526441-29.791302-66.526441-66.526441 0.031999-36.767138 29.791302-66.526441 66.526441-66.526441s66.55844 29.791302 66.55844 66.526441c0 36.70314-29.791302 66.526441-66.55844 66.526441z" p-id="2614"></path></svg>