<?xml version="1.0" standalone="no"?><!DOCTYPE svg PUBLIC "-//W3C//DTD SVG 1.1//EN" "http://www.w3.org/Graphics/SVG/1.1/DTD/svg11.dtd"><svg t="1523257994335" class="icon" style="" viewBox="0 0 1024 1024" version="1.1" xmlns="http://www.w3.org/2000/svg" p-id="869" xmlns:xlink="http://www.w3.org/1999/xlink" width="200" height="200"><defs><style type="text/css"></style></defs><path d="M941.78670592 229.79065628444448c0-72.49414371555555-62.13783665777777-134.63198037333333-134.63198037333333-134.63197923555558H232.37973333333332c-72.49414371555555 0-134.63198037333333 62.13783665777777-134.63198037333333 134.63197923555558v572.1859163022222c0 72.49414371555555 62.13783665777777 134.63198037333333 134.63198037333333 134.63198037333333h572.1859163022222c72.49414371555555 0 134.63198037333333-62.13783665777777 134.63198037333333-134.63198037333333v-142.39920924444445H636.2756744533333c0-2.5890770488888886-116.50844444444445 7.767230008888888-116.50844444444445-137.22105742222223 0-155.34459221333333 126.86475036444445-144.98828629333332 126.86475036444445-144.98828629333332h295.15472554666667v-147.57736334222224z" fill="" p-id="870"></path><path d="M574.1378366577777 519.767230008889c0 100.97398556444443 90.61767850666665 90.61767850666665 90.61767964444445 90.61767850666665h266.6748836977778v-194.18074111999996h-258.90765482666666c0 2.5890770488888886-98.38490851555554-5.17815296-98.38490851555554 103.56306261333333z m100.97398556444443-44.01430186666666c18.123535928888888 0 33.657994808888894 15.534458879999999 33.657994808888894 33.657994808888894 0 12.945382968888888-7.767230008888888 23.301688888888886-18.123535928888888 31.068918897777777-10.35630592 5.17815296-23.301688888888886 5.17815296-33.657994808888894 0s-18.123535928888888-18.123535928888888-18.123535928888888-31.068918897777777c2.5890770488888886-18.123535928888888 18.123535928888888-33.657994808888894 36.247071857777776-33.657994808888894z" fill="" p-id="871"></path></svg>